<svg width="45" height="45" viewBox="0 0 45 45" fill="none" xmlns="http://www.w3.org/2000/svg">
<path d="M2.75162 0.471287L23.6408 21.3638C24.2675 21.9906 24.2675 23.0094 23.6408 23.6362L2.75162 44.5287C2.12495 45.1571 1.09668 45.1571 0.470006 44.5287C-0.156669 43.9019 -0.156669 42.8831 0.470006 42.2563L20.2345 22.5L0.470006 2.74366C-0.156669 2.11688 -0.156669 1.09806 0.470006 0.471287C1.09668 -0.157096 2.12495 -0.157096 2.75162 0.471287Z" fill="black"/>
<path d="M23.6408 0.471287L44.53 21.3638C45.1566 21.9906 45.1566 23.0094 44.53 23.6362L23.6408 44.5287C23.0141 45.1571 21.9858 45.1571 21.3592 44.5287C20.7325 43.9019 20.7325 42.8831 21.3592 42.2563L41.1236 22.5L21.3592 2.74366C20.7325 2.11688 20.7325 1.09806 21.3592 0.471287C21.9858 -0.157096 23.0141 -0.157096 23.6408 0.471287Z" fill="black"/>
</svg>
