<svg width="45" height="45" viewBox="0 0 45 45" fill="none" xmlns="http://www.w3.org/2000/svg">
<path d="M0.470007 21.3638C-0.156669 21.9906 -0.156669 23.0094 0.470007 23.6362L21.3592 44.5287C21.9859 45.1571 23.0141 45.1571 23.6408 44.5287C24.2675 43.9019 24.2675 42.8831 23.6408 42.2563L3.87635 22.5L23.6408 2.74366C24.2675 2.11688 24.2675 1.09806 23.6408 0.471287C23.0141 -0.157096 21.9859 -0.157096 21.3592 0.471287L0.470007 21.3638Z" fill="black"/>
<path d="M42.2484 0.471287L21.3592 21.3638C20.7325 21.9906 20.7325 23.0094 21.3592 23.6362L42.2484 44.5287C42.875 45.1571 43.9033 45.1571 44.53 44.5287C45.1566 43.9019 45.1566 42.8831 44.53 42.2563L24.7655 22.5L44.53 2.74366C45.1566 2.11688 45.1566 1.09806 44.53 0.471287C43.9033 -0.157096 42.875 -0.157096 42.2484 0.471287Z" fill="black"/>
</svg>
