<svg width="110" height="110" viewBox="0 0 110 110" fill="none" xmlns="http://www.w3.org/2000/svg">
<path d="M59.5833 104.271H22.9167C11.825 104.271 5.72916 98.175 5.72916 87.0833V50.4167C5.72916 39.325 11.825 33.2292 22.9167 33.2292H45.8333C47.7125 33.2292 49.2708 34.7875 49.2708 36.6667V87.0833C49.2708 94.325 52.3417 97.3958 59.5833 97.3958C61.4625 97.3958 63.0208 98.9542 63.0208 100.833C63.0208 102.713 61.4625 104.271 59.5833 104.271ZM22.9167 40.1042C15.675 40.1042 12.6042 43.175 12.6042 50.4167V87.0833C12.6042 94.325 15.675 97.3958 22.9167 97.3958H44.9166C43.2666 94.6917 42.3958 91.2542 42.3958 87.0833V40.1042H22.9167Z" fill="white"/>
<path d="M45.8333 40.1042H22.9167C21.0375 40.1042 19.4792 38.5458 19.4792 36.6667V27.5C19.4792 20.5333 25.1167 14.8958 32.0833 14.8958H46.3374C47.3916 14.8958 48.4 15.3999 49.0417 16.2249C49.6834 17.0957 49.9124 18.1958 49.6374 19.2042C49.3624 20.2125 49.2708 21.3583 49.2708 22.9167V36.6667C49.2708 38.5458 47.7125 40.1042 45.8333 40.1042ZM26.3542 33.2292H42.3958V22.9167C42.3958 22.5042 42.3958 22.1375 42.3958 21.7708H32.0833C28.9208 21.7708 26.3542 24.3375 26.3542 27.5V33.2292Z" fill="white"/>
<path d="M64.1667 63.0208C62.2875 63.0208 60.7292 61.4625 60.7292 59.5833V36.6667C60.7292 34.7875 62.2875 33.2292 64.1667 33.2292C66.0458 33.2292 67.6042 34.7875 67.6042 36.6667V59.5833C67.6042 61.4625 66.0458 63.0208 64.1667 63.0208Z" fill="white"/>
<path d="M82.5 63.0208C80.6208 63.0208 79.0625 61.4625 79.0625 59.5833V36.6667C79.0625 34.7875 80.6208 33.2292 82.5 33.2292C84.3792 33.2292 85.9375 34.7875 85.9375 36.6667V59.5833C85.9375 61.4625 84.3792 63.0208 82.5 63.0208Z" fill="white"/>
<path d="M82.5 104.271H64.1667C62.2875 104.271 60.7292 102.712 60.7292 100.833V82.5C60.7292 78.1 64.35 74.4792 68.75 74.4792H77.9167C82.3167 74.4792 85.9375 78.1 85.9375 82.5V100.833C85.9375 102.712 84.3792 104.271 82.5 104.271ZM67.6042 97.3958H79.0625V82.5C79.0625 81.8583 78.5583 81.3542 77.9167 81.3542H68.75C68.1083 81.3542 67.6042 81.8583 67.6042 82.5V97.3958Z" fill="white"/>
<path d="M27.5 81.3542C25.6208 81.3542 24.0625 79.7958 24.0625 77.9167V59.5833C24.0625 57.7042 25.6208 56.1458 27.5 56.1458C29.3792 56.1458 30.9375 57.7042 30.9375 59.5833V77.9167C30.9375 79.7958 29.3792 81.3542 27.5 81.3542Z" fill="white"/>
<path d="M87.0833 104.271H59.5833C48.4917 104.271 42.3958 98.175 42.3958 87.0833V22.9167C42.3958 11.825 48.4917 5.72916 59.5833 5.72916H87.0833C98.175 5.72916 104.271 11.825 104.271 22.9167V87.0833C104.271 98.175 98.175 104.271 87.0833 104.271ZM59.5833 12.6042C52.3417 12.6042 49.2708 15.675 49.2708 22.9167V87.0833C49.2708 94.325 52.3417 97.3958 59.5833 97.3958H87.0833C94.325 97.3958 97.3958 94.325 97.3958 87.0833V22.9167C97.3958 15.675 94.325 12.6042 87.0833 12.6042H59.5833Z" fill="white"/>
</svg>
