<svg width="110" height="110" viewBox="0 0 110 110" fill="none" xmlns="http://www.w3.org/2000/svg">
<path d="M87.0833 49.2708H77.9167C66.825 49.2708 60.7292 43.175 60.7292 32.0833V22.9167C60.7292 11.825 66.825 5.72916 77.9167 5.72916H87.0833C98.175 5.72916 104.271 11.825 104.271 22.9167V32.0833C104.271 43.175 98.175 49.2708 87.0833 49.2708ZM77.9167 12.6042C70.675 12.6042 67.6042 15.675 67.6042 22.9167V32.0833C67.6042 39.325 70.675 42.3958 77.9167 42.3958H87.0833C94.325 42.3958 97.3958 39.325 97.3958 32.0833V22.9167C97.3958 15.675 94.325 12.6042 87.0833 12.6042H77.9167Z" fill="white"/>
<path d="M32.0833 104.271H22.9167C11.825 104.271 5.72916 98.175 5.72916 87.0833V77.9167C5.72916 66.825 11.825 60.7292 22.9167 60.7292H32.0833C43.175 60.7292 49.2708 66.825 49.2708 77.9167V87.0833C49.2708 98.175 43.175 104.271 32.0833 104.271ZM22.9167 67.6042C15.675 67.6042 12.6042 70.675 12.6042 77.9167V87.0833C12.6042 94.325 15.675 97.3958 22.9167 97.3958H32.0833C39.325 97.3958 42.3958 94.325 42.3958 87.0833V77.9167C42.3958 70.675 39.325 67.6042 32.0833 67.6042H22.9167Z" fill="white"/>
<path d="M27.5 49.2708C15.4917 49.2708 5.72916 39.5083 5.72916 27.5C5.72916 15.4917 15.4917 5.72916 27.5 5.72916C39.5083 5.72916 49.2708 15.4917 49.2708 27.5C49.2708 39.5083 39.5083 49.2708 27.5 49.2708ZM27.5 12.6042C19.2958 12.6042 12.6042 19.2958 12.6042 27.5C12.6042 35.7042 19.2958 42.3958 27.5 42.3958C35.7042 42.3958 42.3958 35.7042 42.3958 27.5C42.3958 19.2958 35.7042 12.6042 27.5 12.6042Z" fill="white"/>
<path d="M82.5 104.271C70.4917 104.271 60.7292 94.5083 60.7292 82.5C60.7292 70.4917 70.4917 60.7292 82.5 60.7292C94.5083 60.7292 104.271 70.4917 104.271 82.5C104.271 94.5083 94.5083 104.271 82.5 104.271ZM82.5 67.6042C74.2958 67.6042 67.6042 74.2958 67.6042 82.5C67.6042 90.7042 74.2958 97.3958 82.5 97.3958C90.7042 97.3958 97.3958 90.7042 97.3958 82.5C97.3958 74.2958 90.7042 67.6042 82.5 67.6042Z" fill="white"/>
</svg>
