<svg width="110" height="110" viewBox="0 0 110 110" fill="none" xmlns="http://www.w3.org/2000/svg">
<path d="M25.3917 89.4667C22.5958 89.4667 19.9833 88.5042 18.1042 86.7167C15.7208 84.4708 14.575 81.0792 14.9875 77.4125L16.6833 62.5625C17.0042 59.7667 18.7 56.0542 20.6708 54.0375L58.3 14.2083C67.6958 4.2625 77.5042 3.9875 87.45 13.3833C97.3958 22.7792 97.6708 32.5875 88.275 42.5333L50.6458 82.3625C48.7208 84.425 45.1458 86.35 42.35 86.8083L27.5917 89.3292C26.8125 89.375 26.125 89.4667 25.3917 89.4667ZM73.0125 13.3375C69.4833 13.3375 66.4125 15.5375 63.2958 18.8375L25.6667 58.7125C24.75 59.675 23.6958 61.9667 23.5125 63.2958L21.8167 78.1458C21.6333 79.6583 22 80.8958 22.825 81.675C23.65 82.4542 24.8875 82.7292 26.4 82.5L41.1583 79.9792C42.4875 79.75 44.6875 78.5583 45.6042 77.5958L83.2333 37.7667C88.9167 31.7167 90.9792 26.125 82.6833 18.3333C79.0167 14.8042 75.8542 13.3375 73.0125 13.3375Z" fill="white"/>
<path d="M79.475 50.1875C79.3833 50.1875 79.2458 50.1875 79.1542 50.1875C64.8542 48.7667 53.35 37.9042 51.15 23.6958C50.875 21.8167 52.1583 20.075 54.0375 19.7542C55.9167 19.4792 57.6583 20.7625 57.9792 22.6417C59.7208 33.7333 68.7042 42.2583 79.8875 43.3583C81.7667 43.5417 83.1417 45.2375 82.9583 47.1167C82.7292 48.8583 81.2167 50.1875 79.475 50.1875Z" fill="white"/>
<path d="M96.25 104.271H13.75C11.8708 104.271 10.3125 102.713 10.3125 100.833C10.3125 98.9542 11.8708 97.3958 13.75 97.3958H96.25C98.1292 97.3958 99.6875 98.9542 99.6875 100.833C99.6875 102.713 98.1292 104.271 96.25 104.271Z" fill="white"/>
</svg>
