<svg width="32" height="32" viewBox="0 0 32 32" fill="none" xmlns="http://www.w3.org/2000/svg">
<rect width="32" height="32" fill="#D1E8E2"/>
<path d="M15.3276 6.72559C16.9888 6.72559 18.3599 6.92773 19.4409 7.33203C20.5308 7.73633 21.3394 8.35156 21.8667 9.17773C22.4028 10.0039 22.6709 11.0542 22.6709 12.3286C22.6709 13.2778 22.4951 14.0864 22.1436 14.7544C21.792 15.4224 21.3306 15.9761 20.7593 16.4155C20.188 16.855 19.5771 17.2065 18.9268 17.4702L24.3979 26H20.8252L16.1714 18.2744H13.0732V26H9.90918V6.72559H15.3276ZM15.1167 9.3623H13.0732V15.6641H15.2617C16.7295 15.6641 17.793 15.3916 18.4521 14.8467C19.1201 14.3018 19.4541 13.4976 19.4541 12.4341C19.4541 11.3179 19.0981 10.5269 18.3862 10.061C17.6831 9.59521 16.5933 9.3623 15.1167 9.3623Z" fill="#116466"/>
</svg>
