<svg width="110" height="110" viewBox="0 0 110 110" fill="none" xmlns="http://www.w3.org/2000/svg">
<path d="M67.6958 90.5209H42.4417C40.425 90.5209 37.8583 90.2917 36.1625 88.55C34.5125 86.8542 34.5583 84.7458 34.6042 83.325V79.2459C23.0542 71.5459 15.4458 58.1625 15.4458 45.4208C15.4458 33.3667 20.8542 22.0917 30.25 14.5292C39.6458 6.96668 51.975 4.12501 64.0292 6.78335C75.4875 9.30418 85.3875 16.9583 90.5208 27.2708C100.467 47.3 90.8875 68.9792 75.5792 79.2917V82.7292C75.625 84.0583 75.6708 86.4875 73.7917 88.4125C72.3708 89.7875 70.3542 90.5209 67.6958 90.5209ZM41.4333 83.6C41.6625 83.6 41.9833 83.6459 42.3958 83.6459H67.6958C68.1542 83.6459 68.475 83.6 68.6583 83.5542C68.6583 83.4167 68.6583 83.2333 68.6583 83.0958V77.3209C68.6583 76.1292 69.3 74.9833 70.3083 74.3875C83.875 66.1833 92.8583 47.4375 84.2875 30.25C80.0708 21.7708 71.9125 15.4917 62.4708 13.4292C52.4792 11.2292 42.2583 13.5667 34.4667 19.8458C26.675 26.125 22.2292 35.4292 22.2292 45.4208C22.2292 58.1625 31.0292 69.1625 39.7375 74.4333C40.7917 75.075 41.3875 76.175 41.3875 77.3667V83.5542C41.4333 83.5542 41.4333 83.5542 41.4333 83.6Z" fill="white"/>
<path d="M71.0417 104.271C70.7208 104.271 70.4 104.225 70.0792 104.133C60.1792 101.292 49.775 101.292 39.875 104.133C38.0417 104.637 36.1625 103.583 35.6125 101.75C35.0625 99.9167 36.1625 98.0375 37.9958 97.4875C49.0875 94.325 60.8667 94.325 71.9583 97.4875C73.7917 97.9917 74.8458 99.9167 74.3417 101.75C73.9292 103.308 72.5542 104.271 71.0417 104.271Z" fill="white"/>
</svg>
