<svg width="110" height="110" viewBox="0 0 110 110" fill="none" xmlns="http://www.w3.org/2000/svg">
<path d="M55 64.9458C45.2375 64.9458 37.2625 57.0167 37.2625 47.2083C37.2625 37.4 45.2375 29.5167 55 29.5167C64.7625 29.5167 72.7375 37.4458 72.7375 47.2542C72.7375 57.0625 64.7625 64.9458 55 64.9458ZM55 36.3917C49.0417 36.3917 44.1375 41.25 44.1375 47.2542C44.1375 53.2583 48.9958 58.1167 55 58.1167C61.0042 58.1167 65.8625 53.2583 65.8625 47.2542C65.8625 41.25 60.9583 36.3917 55 36.3917Z" fill="white"/>
<path d="M55 104.317C48.2167 104.317 41.3875 101.75 36.0708 96.6625C22.55 83.6458 7.60833 62.8833 13.2458 38.1792C18.3333 15.7667 37.9042 5.72916 55 5.72916C55 5.72916 55 5.72916 55.0458 5.72916C72.1417 5.72916 91.7125 15.7667 96.8 38.225C102.392 62.9292 87.45 83.6458 73.9292 96.6625C68.6125 101.75 61.7833 104.317 55 104.317ZM55 12.6042C41.6625 12.6042 24.5208 19.7083 19.9833 39.6917C15.0333 61.2792 28.6 79.8875 40.8833 91.6667C48.8125 99.3208 61.2333 99.3208 69.1625 91.6667C81.4 79.8875 94.9667 61.2792 90.1083 39.6917C85.525 19.7083 68.3375 12.6042 55 12.6042Z" fill="white"/>
</svg>
