<svg width="143" height="21" viewBox="0 0 143 21" fill="none" xmlns="http://www.w3.org/2000/svg">
<path d="M5.94971 0.725586C7.61084 0.725586 8.98193 0.927734 10.063 1.33203C11.1528 1.73633 11.9614 2.35156 12.4888 3.17773C13.0249 4.00391 13.293 5.0542 13.293 6.32861C13.293 7.27783 13.1172 8.08643 12.7656 8.75439C12.4141 9.42236 11.9526 9.97607 11.3813 10.4155C10.8101 10.855 10.1992 11.2065 9.54883 11.4702L15.02 20H11.4473L6.79346 12.2744H3.69531V20H0.53125V0.725586H5.94971ZM5.73877 3.3623H3.69531V9.66406H5.88379C7.35156 9.66406 8.41504 9.3916 9.07422 8.84668C9.74219 8.30176 10.0762 7.49756 10.0762 6.43408C10.0762 5.31787 9.72021 4.52686 9.0083 4.06104C8.30518 3.59521 7.21533 3.3623 5.73877 3.3623ZM51.6229 5.12891C52.9237 5.12891 54.0399 5.39697 54.9716 5.93311C55.9032 6.46924 56.6195 7.22949 57.1205 8.21387C57.6215 9.19824 57.872 10.376 57.872 11.7471V13.4082H48.1293C48.1645 14.8232 48.5424 15.9131 49.2631 16.6777C49.9926 17.4424 51.0121 17.8247 52.3217 17.8247C53.2533 17.8247 54.0883 17.7368 54.8266 17.561C55.5736 17.3765 56.3427 17.1084 57.1337 16.7568V19.2749C56.4042 19.6177 55.6615 19.8682 54.9057 20.0264C54.1498 20.1846 53.2445 20.2637 52.1898 20.2637C50.7572 20.2637 49.496 19.9868 48.4062 19.4331C47.3251 18.8706 46.477 18.0356 45.8617 16.9282C45.2553 15.8208 44.952 14.4453 44.952 12.8018C44.952 11.167 45.2289 9.77832 45.7826 8.63574C46.3363 7.49316 47.1142 6.62305 48.1161 6.02539C49.1181 5.42773 50.287 5.12891 51.6229 5.12891ZM51.6229 7.4624C50.6474 7.4624 49.8563 7.77881 49.2499 8.41162C48.6522 9.04443 48.3007 9.97168 48.1952 11.1934H54.8397C54.831 10.4639 54.7079 9.81787 54.4706 9.25537C54.2421 8.69287 53.8905 8.25342 53.4159 7.93701C52.9501 7.62061 52.3524 7.4624 51.6229 7.4624ZM97.3226 5.12891C98.9661 5.12891 100.245 5.55518 101.159 6.40771C102.082 7.25146 102.543 8.60938 102.543 10.4814V20H99.4451V11.0615C99.4451 9.92773 99.2122 9.07959 98.7464 8.51709C98.2806 7.9458 97.5599 7.66016 96.5843 7.66016C95.1692 7.66016 94.1849 8.09521 93.6311 8.96533C93.0862 9.83545 92.8138 11.0967 92.8138 12.749V20H89.7156V5.40576H92.1282L92.5633 7.3833H92.7347C93.0511 6.87354 93.4422 6.45605 93.908 6.13086C94.3826 5.79688 94.91 5.54639 95.49 5.37939C96.0789 5.2124 96.6897 5.12891 97.3226 5.12891ZM140.662 17.7588C141.067 17.7588 141.467 17.7236 141.862 17.6533C142.258 17.5742 142.618 17.4819 142.943 17.3765V19.7231C142.6 19.8726 142.156 20 141.612 20.1055C141.067 20.2109 140.5 20.2637 139.911 20.2637C139.085 20.2637 138.342 20.1274 137.683 19.855C137.024 19.5737 136.501 19.0947 136.114 18.418C135.727 17.7412 135.534 16.8052 135.534 15.6099V7.76562H133.543V6.38135L135.679 5.28711L136.694 2.1626H138.645V5.40576H142.824V7.76562H138.645V15.5703C138.645 16.3086 138.83 16.8579 139.199 17.2183C139.568 17.5786 140.056 17.7588 140.662 17.7588Z" fill="#116466"/>
</svg>
