<svg width="110" height="110" viewBox="0 0 110 110" fill="none" xmlns="http://www.w3.org/2000/svg">
<path d="M100.833 33.2292H73.3333C71.4542 33.2292 69.8958 31.6708 69.8958 29.7917C69.8958 27.9125 71.4542 26.3542 73.3333 26.3542H100.833C102.713 26.3542 104.271 27.9125 104.271 29.7917C104.271 31.6708 102.713 33.2292 100.833 33.2292Z" fill="white"/>
<path d="M27.5 33.2292H9.16666C7.28749 33.2292 5.72916 31.6708 5.72916 29.7917C5.72916 27.9125 7.28749 26.3542 9.16666 26.3542H27.5C29.3792 26.3542 30.9375 27.9125 30.9375 29.7917C30.9375 31.6708 29.3792 33.2292 27.5 33.2292Z" fill="white"/>
<path d="M45.8333 49.2708C35.1083 49.2708 26.3542 40.5167 26.3542 29.7917C26.3542 19.0667 35.1083 10.3125 45.8333 10.3125C56.5583 10.3125 65.3125 19.0667 65.3125 29.7917C65.3125 40.5167 56.5583 49.2708 45.8333 49.2708ZM45.8333 17.1875C38.8667 17.1875 33.2292 22.825 33.2292 29.7917C33.2292 36.7583 38.8667 42.3958 45.8333 42.3958C52.8 42.3958 58.4375 36.7583 58.4375 29.7917C58.4375 22.825 52.8 17.1875 45.8333 17.1875Z" fill="white"/>
<path d="M100.833 83.6458H82.5C80.6208 83.6458 79.0625 82.0875 79.0625 80.2083C79.0625 78.3292 80.6208 76.7708 82.5 76.7708H100.833C102.713 76.7708 104.271 78.3292 104.271 80.2083C104.271 82.0875 102.713 83.6458 100.833 83.6458Z" fill="white"/>
<path d="M36.6667 83.6458H9.16666C7.28749 83.6458 5.72916 82.0875 5.72916 80.2083C5.72916 78.3292 7.28749 76.7708 9.16666 76.7708H36.6667C38.5458 76.7708 40.1042 78.3292 40.1042 80.2083C40.1042 82.0875 38.5458 83.6458 36.6667 83.6458Z" fill="white"/>
<path d="M64.1667 99.6875C53.4417 99.6875 44.6875 90.9333 44.6875 80.2083C44.6875 69.4833 53.4417 60.7292 64.1667 60.7292C74.8917 60.7292 83.6458 69.4833 83.6458 80.2083C83.6458 90.9333 74.8917 99.6875 64.1667 99.6875ZM64.1667 67.6042C57.2 67.6042 51.5625 73.2417 51.5625 80.2083C51.5625 87.175 57.2 92.8125 64.1667 92.8125C71.1333 92.8125 76.7708 87.175 76.7708 80.2083C76.7708 73.2417 71.1333 67.6042 64.1667 67.6042Z" fill="white"/>
</svg>
